<svg width="19" height="20" viewBox="0 0 19 20" fill="none" xmlns="http://www.w3.org/2000/svg">
<path d="M3.60676 10.0283L10.4603 10.0283M16.0569 11.4424L3.76372 17.9505C2.66168 18.534 2.11075 18.8257 1.74742 18.7418C1.43233 18.6691 1.17207 18.4486 1.0485 18.1498C0.906015 17.8052 1.10291 17.2135 1.49723 16.0305L3.32931 10.5343C3.39188 10.3466 3.42314 10.2527 3.43557 10.1566C3.44659 10.0714 3.4468 9.9853 3.43577 9.90009C3.42335 9.80406 3.39189 9.71005 3.32932 9.52232L1.49724 4.02608C1.10292 2.84312 0.905645 2.25168 1.04813 1.90709C1.1717 1.60824 1.43231 1.38761 1.74741 1.31485C2.11073 1.23095 2.66174 1.52275 3.76378 2.10618L16.057 8.61435C16.9234 9.07303 17.3565 9.30224 17.4981 9.60819C17.6215 9.87467 17.6216 10.1821 17.4983 10.4485C17.3566 10.7545 16.9233 10.9837 16.0569 11.4424Z" stroke="#FF6700" stroke-width="2" stroke-linecap="round" stroke-linejoin="round"/>
</svg>
