<svg width="50" height="51" viewBox="0 0 50 51" fill="none" xmlns="http://www.w3.org/2000/svg">
<path d="M25 0.0283203C11.2225 0.0283203 0 11.2508 0 25.0283C0 38.8058 11.2225 50.0283 25 50.0283C38.7775 50.0283 50 38.8058 50 25.0283C50 11.2508 38.7775 0.0283203 25 0.0283203ZM25 5.02832C36.0753 5.02832 45 13.953 45 25.0283C45 35.0645 37.6633 43.3109 28.0469 44.7744V30.9902H33.8672L34.7803 25.0771H28.0469V21.8447C28.0469 19.3872 28.8475 17.2061 31.1475 17.2061H34.8389V12.0449C34.1889 11.9574 32.8171 11.7666 30.2246 11.7666C24.8096 11.7666 21.6357 14.6266 21.6357 21.1416V25.0771H16.0693V30.9902H21.6357V44.7256C12.1757 43.1304 5 34.9539 5 25.0283C5 13.953 13.9247 5.02832 25 5.02832Z" fill="#424244"/>
</svg>
