<svg width="50" height="51" viewBox="0 0 50 51" fill="none" xmlns="http://www.w3.org/2000/svg">
<path d="M16.6663 25.0437C16.6582 20.442 20.3826 16.7038 24.9834 16.6958C29.5851 16.6868 33.3239 20.4096 33.3329 25.0121C33.3418 29.6147 29.6174 33.352 25.0149 33.3609C20.4141 33.3697 16.6752 29.6462 16.6663 25.0437ZM12.1636 25.0526C12.1773 32.1427 17.9356 37.8776 25.0239 37.8637C32.113 37.85 37.8511 32.0933 37.8373 25.0032C37.8235 17.9156 32.0644 12.1774 24.9745 12.1913C17.8861 12.2051 12.1498 17.9642 12.1636 25.0526ZM35.3183 11.6647C35.3215 13.3204 36.6676 14.661 38.3233 14.6578C39.9797 14.6545 41.3203 13.3091 41.3179 11.6534C41.3147 9.99774 39.9685 8.65633 38.312 8.65965C36.6556 8.66288 35.315 10.0091 35.3183 11.6647ZM14.9378 45.3952C12.5005 45.2892 11.1769 44.8841 10.2949 44.5447C9.12683 44.0928 8.29333 43.5509 7.41609 42.6802C6.5405 41.8061 5.99694 40.975 5.54089 39.8094C5.19831 38.9273 4.78601 37.6054 4.67175 35.1681C4.54782 32.533 4.5195 31.7425 4.50739 25.0672C4.4944 18.3936 4.51872 17.6029 4.63376 14.9655C4.73815 12.5299 5.14567 11.2046 5.48425 10.3233C5.9362 9.1537 6.47653 8.32176 7.3489 7.44461C8.22283 6.56736 9.05388 6.02547 10.2203 5.56941C11.1016 5.22508 12.4235 4.816 14.86 4.70027C17.4966 4.57547 18.2863 4.54881 24.96 4.53582C31.6351 4.52283 32.4256 4.54637 35.0631 4.66219C37.4986 4.76824 38.8238 5.17166 39.7044 5.51268C40.8731 5.96463 41.7066 6.5034 42.5831 7.37733C43.4595 8.25135 44.003 9.08075 44.4591 10.2497C44.8032 11.1285 45.2124 12.452 45.3275 14.8878C45.4529 17.5243 45.4814 18.3149 45.4935 24.9886C45.5064 31.6639 45.482 32.4545 45.3663 35.0903C45.2602 37.5276 44.856 38.8521 44.5158 39.7349C44.0638 40.9022 43.5235 41.7357 42.6503 42.6129C41.7772 43.4868 40.9461 44.032 39.7789 44.488C38.8991 44.8315 37.5757 45.2413 35.1408 45.3572C32.5043 45.4811 31.7145 45.5095 25.0385 45.5216C18.3648 45.5346 17.5752 45.5095 14.9378 45.3952ZM14.6462 0.201441C11.9861 0.327027 10.1693 0.753004 8.58161 1.37517C6.93816 2.0159 5.54499 2.87449 4.15915 4.26609C2.77155 5.65848 1.9194 7.05408 1.28356 8.6992C0.668033 10.2909 0.250845 12.1086 0.133364 14.7703C0.0167624 17.4369 -0.00999544 18.2874 0.00299285 25.0761C0.0159811 31.864 0.045864 32.7161 0.173013 35.3835C0.300161 38.0428 0.724673 39.8588 1.34674 41.4472C1.98825 43.0907 2.84606 44.4832 4.23845 45.8699C5.63005 47.2567 7.02654 48.108 8.67243 48.7448C10.2625 49.3594 12.0808 49.7782 14.7418 49.8948C17.4083 50.0123 18.2596 50.0382 25.0466 50.0253C31.8368 50.0123 32.6882 49.9823 35.3547 49.856C38.0147 49.7288 39.8299 49.3029 41.4191 48.6823C43.0626 48.0392 44.4558 47.1829 45.8418 45.7906C47.2276 44.3988 48.0798 43.0025 48.7156 41.3566C49.3313 39.7665 49.75 37.948 49.8657 35.2888C49.9824 32.6205 50.0101 31.7684 49.997 24.9805C49.984 18.1918 49.9533 17.3413 49.827 14.6756C49.7006 12.0139 49.2745 10.1986 48.6532 8.60936C48.011 6.9659 47.154 5.5742 45.7624 4.1867C44.3708 2.80076 42.9743 1.94695 41.3284 1.31277C39.7376 0.697144 37.9199 0.277613 35.2591 0.162573C32.5925 0.0443116 31.7412 0.0184326 24.9517 0.0313233C18.1639 0.0443115 17.3127 0.0734131 14.6462 0.201441Z" fill="#424244"/>
</svg>
