<svg width="50" height="51" viewBox="0 0 50 51" fill="none" xmlns="http://www.w3.org/2000/svg">
<path fill-rule="evenodd" clip-rule="evenodd" d="M10 0.0283203C4.47715 0.0283203 0 4.50547 0 10.0283V40.0283C0 45.5511 4.47715 50.0283 10 50.0283H40C45.5228 50.0283 50 45.5511 50 40.0283V10.0283C50 4.50547 45.5228 0.0283203 40 0.0283203H10ZM5 10.0283C5 7.2669 7.23857 5.02832 10 5.02832H40C42.7615 5.02832 45 7.2669 45 10.0283V40.0283C45 42.7898 42.7615 45.0283 40 45.0283H10C7.23857 45.0283 5 42.7898 5 40.0283V10.0283ZM17.5 22.5283C17.5 21.1476 16.3807 20.0283 15 20.0283C13.6193 20.0283 12.5 21.1476 12.5 22.5283V37.5283C12.5 38.9091 13.6193 40.0283 15 40.0283C16.3807 40.0283 17.5 38.9091 17.5 37.5283V22.5283ZM18.75 13.7783C18.75 15.8494 17.0711 17.5283 15 17.5283C12.9289 17.5283 11.25 15.8494 11.25 13.7783C11.25 11.7072 12.9289 10.0283 15 10.0283C17.0711 10.0283 18.75 11.7072 18.75 13.7783ZM25 20.0283C25.8487 20.0283 26.5988 20.4513 27.0508 21.0981C28.3323 20.4038 29.759 20.0283 31.25 20.0283C36.6485 20.0283 40 24.8428 40 28.9568V28.9758V28.9946V29.0136V29.0326V29.0516V29.0708V29.0898V29.1091V29.1283V29.1476V29.1671V29.1863V29.2058V29.2253V29.2448V29.2643V29.2838V29.3036V29.3233V29.3428V29.3628V29.3826V29.4023V29.4223V29.4421V29.4621V29.4821V29.5023V29.5223V29.5426V29.5626V29.5828V29.6031V29.6233V29.6438V29.6641V29.6846V29.7048V29.7253V29.7458V29.7666V29.7871V29.8076V29.8283V29.8491V29.8696V29.8903V29.9113V29.9321V29.9528V29.9738V29.9948V30.0156V30.0366V30.0576V30.0786V30.0998V30.1208V30.1421V30.1631V30.1843V30.2056V30.2268V30.2481V30.2693V30.2906V30.3121V30.3333V30.3548V30.3763V30.3978V30.4191V30.4408V30.4623V30.4838V30.5053V30.5271V30.5486V30.5703V30.5918V30.6136V30.6353V30.6571V30.6788V30.7006V30.7223V30.7443V30.7661V30.7881V30.8098V30.8318V30.8536V30.8756V30.8976V30.9196V30.9416V30.9636V30.9856V31.0076V31.0296V31.0516V31.0738V31.0958V31.1181V31.1401V31.1623V31.1843V31.2066V31.2288V31.2511V31.2731V31.2953V31.3176V31.3398V31.3621V31.3843V31.4066V31.4288V31.4513V31.4736V31.4958V31.5181V31.5406V31.5628V31.5851V31.6076V31.6298V31.6523V31.6746V31.6968V31.7193V31.7418V31.7641V31.7866V31.8088V31.8313V31.8538V31.8761V31.8986V31.9208V31.9433V31.9658V31.9881V32.0106V32.0331V32.0553V32.0778V32.1003V32.1228V32.1451V32.1676V32.1901V32.2123V32.2348V32.2573V32.2796V32.3021V32.3243V32.3468V32.3691V32.3916V32.4141V32.4363V32.4588V32.4811V32.5033V32.5258V32.5481V32.5706V32.5928V32.6151V32.6373V32.6598V32.6821V32.7043V32.7266V32.7488V32.7711V32.7933V32.8156V32.8378V32.8601V32.8823V32.9043V32.9266V32.9488V32.9708V32.9931V33.0151V33.0373V33.0593V33.0816V33.1036V33.1256V33.1476V33.1696V33.1916V33.2136V33.2356V33.2576V33.2796V33.3013V33.3233V33.3451V33.3671V33.3888V33.4106V33.4323V33.4541V33.4758V33.4976V33.5193V33.5411V33.5628V33.5843V33.6061V33.6276V33.6491V33.6708V33.6923V33.7138V33.7351V33.7566V33.7781V33.7996V33.8208V33.8421V33.8636V33.8848V33.9061V33.9273V33.9486V33.9696V33.9908V34.0118V34.0331V34.0541V34.0751V34.0961V34.1171V34.1381V34.1588V34.1798V34.2006V34.2213V34.2421V34.2628V34.2836V34.3043V34.3248V34.3456V34.3661V34.3866V34.4071V34.4276V34.4481V34.4683V34.4888V34.5091V34.5293V34.5496V34.5698V34.5898V34.6101V34.6301V34.6501V34.6701V34.6901V34.7101V34.7298V34.7496V34.7696V34.7893V34.8088V34.8286V34.8483V34.8678V34.8873V34.9068V34.9263V34.9456V34.9651V34.9843V35.0036V35.0228V35.0421V35.0611V35.0803V35.0993V35.1183V35.1371V35.1561V35.1748V35.1936V35.2123V35.2311V35.2498V35.2683V35.2868V35.3053V35.3238V35.3421V35.3606V35.3788V35.3971V35.4151V35.4333V35.4513V35.4693V35.4873V35.5053V35.5231V35.5408V35.5586V35.5763V35.5938V35.6113V35.6288V35.6463V35.6638V35.6811V35.6983V35.7156V35.7328V35.7498V35.7668V35.7838V35.8008V35.8176V35.8343V35.8511V35.8678V35.8846V35.9011V35.9176V35.9338V35.9503V35.9666V35.9828V35.9988V36.0151V36.0311V36.0471V36.0628V36.0788V36.0946V36.1103V36.1258V36.1413V36.1568V36.1723V36.1878V36.2031V36.2183V36.2333V36.2486V36.2636V36.2783V36.2933V36.3081V36.3228V36.3376V36.3521V36.3666V36.3811V36.3953V36.4096V36.4238V36.4381V36.4521V36.4661V36.4801V36.4938V36.5076V36.5213V36.5348V36.5486V36.5618V36.5753V36.5886V36.6018V36.6151V36.6281V36.6411V36.6541V36.6668V36.6796V36.6923V36.7048V36.7173V36.7298V36.7421V36.7543V36.7666V36.7786V36.7906V36.8026V36.8143V36.8261V36.8378V36.8493V36.8608V36.8723V36.8836V36.8948V36.9061V36.9171V36.9281V36.9391V36.9498V36.9606V36.9711V36.9816V36.9921V37.0026V37.0128V37.0228V37.0331V37.0431V37.0528V37.0628V37.0726V37.0821V37.0916V37.1011V37.1103V37.1196V37.1288V37.1378V37.1468V37.1558V37.1646V37.1733V37.1818V37.1903V37.1988V37.2071V37.2153V37.2233V37.2313V37.2393V37.2471V37.2548V37.2623V37.2698V37.2773V37.2846V37.2918V37.2991V37.3061V37.3128V37.3196V37.3263V37.3331V37.3396V37.3458V37.3521V37.3583V37.3643V37.3703V37.3763V37.3821V37.3878V37.3933V37.3986V37.4041V37.4093V37.4143V37.4193V37.4243V37.4291V37.4338V37.4383V37.4428V37.4473V37.4516V37.4556V37.4596V37.4636V37.4673V37.4711V37.4746V37.4781V37.4816V37.4848V37.4878V37.4908V37.4938V37.4966V37.4993V37.5018V37.5066V37.5108V37.5148V37.5181V37.5211V37.5243V37.5273C40 38.9081 38.8807 40.0283 37.5 40.0283C36.1193 40.0283 35 38.9091 35 37.5283V37.5253V37.5223V37.5196V37.5166V37.5128V37.5088V37.5043V37.4993V37.4966V37.4938V37.4908V37.4878V37.4848V37.4816V37.4781V37.4746V37.4711V37.4673V37.4636V37.4596V37.4556V37.4516V37.4473V37.4428V37.4383V37.4338V37.4291V37.4243V37.4193V37.4143V37.4093V37.4041V37.3986V37.3933V37.3878V37.3821V37.3763V37.3703V37.3643V37.3583V37.3521V37.3458V37.3396V37.3331V37.3263V37.3196V37.3128V37.3061V37.2991V37.2918V37.2846V37.2773V37.2698V37.2623V37.2548V37.2471V37.2393V37.2313V37.2233V37.2153V37.2071V37.1988V37.1903V37.1818V37.1733V37.1646V37.1558V37.1468V37.1378V37.1288V37.1196V37.1103V37.1011V37.0916V37.0821V37.0726V37.0628V37.0528V37.0431V37.0331V37.0228V37.0128V37.0026V36.9921V36.9816V36.9711V36.9606V36.9498V36.9391V36.9281V36.9171V36.9061V36.8948V36.8836V36.8723V36.8608V36.8493V36.8378V36.8261V36.8143V36.8026V36.7906V36.7786V36.7666V36.7543V36.7421V36.7298V36.7173V36.7048V36.6923V36.6796V36.6668V36.6541V36.6411V36.6281V36.6151V36.6018V36.5886V36.5753V36.5618V36.5486V36.5348V36.5213V36.5076V36.4938V36.4801V36.4661V36.4521V36.4381V36.4238V36.4096V36.3953V36.3811V36.3666V36.3521V36.3376V36.3228V36.3081V36.2933V36.2783V36.2636V36.2486V36.2333V36.2183V36.2031V36.1878V36.1723V36.1568V36.1413V36.1258V36.1103V36.0946V36.0788V36.0628V36.0471V36.0311V36.0151V35.9988V35.9828V35.9666V35.9503V35.9338V35.9176V35.9011V35.8846V35.8678V35.8511V35.8343V35.8176V35.8008V35.7838V35.7668V35.7498V35.7328V35.7156V35.6983V35.6811V35.6638V35.6463V35.6288V35.6113V35.5938V35.5763V35.5586V35.5408V35.5231V35.5053V35.4873V35.4693V35.4513V35.4333V35.4151V35.3971V35.3788V35.3606V35.3421V35.3238V35.3053V35.2868V35.2683V35.2498V35.2311V35.2123V35.1936V35.1748V35.1561V35.1371V35.1183V35.0993V35.0803V35.0611V35.0421V35.0228V35.0036V34.9843V34.9651V34.9456V34.9263V34.9068V34.8873V34.8678V34.8483V34.8286V34.8088V34.7893V34.7696V34.7496V34.7298V34.7101V34.6901V34.6701V34.6501V34.6301V34.6101V34.5898V34.5698V34.5496V34.5293V34.5091V34.4888V34.4683V34.4481V34.4276V34.4071V34.3866V34.3661V34.3456V34.3248V34.3043V34.2836V34.2628V34.2421V34.2213V34.2006V34.1798V34.1588V34.1381V34.1171V34.0961V34.0751V34.0541V34.0331V34.0118V33.9908V33.9696V33.9486V33.9273V33.9061V33.8848V33.8636V33.8421V33.8208V33.7996V33.7781V33.7566V33.7351V33.7138V33.6923V33.6708V33.6491V33.6276V33.6061V33.5843V33.5628V33.5411V33.5193V33.4976V33.4758V33.4541V33.4323V33.4106V33.3888V33.3671V33.3451V33.3233V33.3013V33.2796V33.2576V33.2356V33.2136V33.1916V33.1696V33.1476V33.1256V33.1036V33.0816V33.0593V33.0373V33.0151V32.9931V32.9708V32.9488V32.9266V32.9043V32.8823V32.8601V32.8378V32.8156V32.7933V32.7711V32.7488V32.7266V32.7043V32.6821V32.6598V32.6373V32.6151V32.5928V32.5706V32.5481V32.5258V32.5033V32.4811V32.4588V32.4363V32.4141V32.3916V32.3691V32.3468V32.3243V32.3021V32.2796V32.2573V32.2348V32.2123V32.1901V32.1676V32.1451V32.1228V32.1003V32.0778V32.0553V32.0331V32.0106V31.9881V31.9658V31.9433V31.9208V31.8986V31.8761V31.8538V31.8313V31.8088V31.7866V31.7641V31.7418V31.7193V31.6968V31.6746V31.6523V31.6298V31.6076V31.5851V31.5628V31.5406V31.5181V31.4958V31.4736V31.4513V31.4288V31.4066V31.3843V31.3621V31.3398V31.3176V31.2953V31.2731V31.2511V31.2288V31.2066V31.1843V31.1623V31.1401V31.1181V31.0958V31.0738V31.0516V31.0296V31.0076V30.9856V30.9636V30.9416V30.9196V30.8976V30.8756V30.8536V30.8318V30.8098V30.7881V30.7661V30.7443V30.7223V30.7006V30.6788V30.6571V30.6353V30.6136V30.5918V30.5703V30.5486V30.5271V30.5053V30.4838V30.4623V30.4408V30.4191V30.3978V30.3763V30.3548V30.3333V30.3121V30.2906V30.2693V30.2481V30.2268V30.2056V30.1843V30.1631V30.1421V30.1208V30.0998V30.0786V30.0576V30.0366V30.0156V29.9948V29.9738V29.9528V29.9321V29.9113V29.8903V29.8696V29.8491V29.8283V29.8076V29.7871V29.7666V29.7458V29.7253V29.7048V29.6846V29.6641V29.6438V29.6233V29.6031V29.5828V29.5626V29.5426V29.5223V29.5023V29.4821V29.4621V29.4421V29.4223V29.4023V29.3826V29.3628V29.3428V29.3233V29.3036V29.2838V29.2643V29.2448V29.2253V29.2058V29.1863V29.1671V29.1476V29.1283V29.1091V29.0898V29.0708V29.0516V29.0326V29.0136V28.9946V28.9758V28.9568C35 27.0363 33.3515 25.0283 31.25 25.0283C29.9398 25.0283 28.4935 25.7406 27.5 27.4361V27.4428V27.4686V27.4943V27.5201V27.5461V27.5718V27.5978V27.6238V27.6501V27.6761V27.7021V27.7283V27.7546V27.7808V27.8071V27.8333V27.8598V27.8863V27.9126V27.9391V27.9656V27.9921V28.0188V28.0453V28.0721V28.0988V28.1253V28.1523V28.1791V28.2058V28.2326V28.2596V28.2866V28.3133V28.3403V28.3673V28.3943V28.4216V28.4486V28.4758V28.5028V28.5301V28.5573V28.5846V28.6118V28.6391V28.6663V28.6938V28.7211V28.7486V28.7758V28.8033V28.8308V28.8583V28.8858V28.9133V28.9408V28.9686V28.9961V29.0236V29.0513V29.0791V29.1066V29.1343V29.1621V29.1898V29.2176V29.2453V29.2731V29.3008V29.3288V29.3566V29.3843V29.4123V29.4401V29.4681V29.4961V29.5238V29.5518V29.5798V29.6078V29.6356V29.6636V29.6916V29.7196V29.7478V29.7758V29.8038V29.8318V29.8598V29.8878V29.9161V29.9441V29.9721V30.0003V30.0283V30.0566V30.0846V30.1128V30.1408V30.1688V30.1971V30.2253V30.2533V30.2816V30.3096V30.3378V30.3658V30.3941V30.4223V30.4503V30.4786V30.5066V30.5348V30.5631V30.5911V30.6193V30.6473V30.6756V30.7036V30.7318V30.7598V30.7881V30.8161V30.8443V30.8723V30.9006V30.9286V30.9568V30.9848V31.0128V31.0408V31.0691V31.0971V31.1251V31.1531V31.1811V31.2091V31.2371V31.2651V31.2931V31.3211V31.3491V31.3771V31.4048V31.4328V31.4608V31.4886V31.5166V31.5443V31.5723V31.6001V31.6278V31.6556V31.6833V31.7113V31.7391V31.7666V31.7943V31.8221V31.8498V31.8773V31.9051V31.9326V31.9603V31.9878V32.0153V32.0428V32.0703V32.0978V32.1253V32.1528V32.1801V32.2076V32.2348V32.2623V32.2896V32.3168V32.3441V32.3713V32.3986V32.4256V32.4528V32.4798V32.5071V32.5341V32.5611V32.5881V32.6151V32.6421V32.6688V32.6958V32.7226V32.7493V32.7761V32.8028V32.8296V32.8563V32.8831V32.9096V32.9361V32.9626V32.9891V33.0156V33.0421V33.0686V33.0948V33.1211V33.1473V33.1736V33.1998V33.2261V33.2521V33.2781V33.3043V33.3303V33.3561V33.3821V33.4081V33.4338V33.4596V33.4853V33.5111V33.5366V33.5623V33.5878V33.6133V33.6388V33.6643V33.6896V33.7151V33.7403V33.7656V33.7906V33.8158V33.8408V33.8658V33.8908V33.9158V33.9408V33.9656V33.9903V34.0151V34.0398V34.0643V34.0891V34.1136V34.1381V34.1623V34.1868V34.2111V34.2353V34.2596V34.2836V34.3078V34.3318V34.3558V34.3796V34.4036V34.4273V34.4511V34.4748V34.4983V34.5218V34.5453V34.5688V34.5923V34.6156V34.6388V34.6618V34.6851V34.7081V34.7311V34.7541V34.7768V34.7998V34.8226V34.8451V34.8678V34.8903V34.9128V34.9351V34.9576V34.9798V35.0021V35.0241V35.0461V35.0681V35.0901V35.1118V35.1336V35.1553V35.1771V35.1986V35.2201V35.2416V35.2628V35.2841V35.3053V35.3266V35.3476V35.3686V35.3893V35.4101V35.4308V35.4516V35.4723V35.4928V35.5131V35.5336V35.5538V35.5741V35.5941V35.6141V35.6341V35.6541V35.6738V35.6936V35.7131V35.7326V35.7521V35.7716V35.7908V35.8101V35.8291V35.8483V35.8673V35.8861V35.9048V35.9236V35.9423V35.9608V35.9791V35.9976V36.0158V36.0341V36.0521V36.0701V36.0881V36.1058V36.1236V36.1411V36.1588V36.1761V36.1936V36.2108V36.2281V36.2451V36.2621V36.2788V36.2958V36.3126V36.3291V36.3456V36.3621V36.3783V36.3946V36.4106V36.4266V36.4426V36.4586V36.4741V36.4898V36.5053V36.5208V36.5361V36.5513V36.5666V36.5816V36.5963V36.6113V36.6261V36.6406V36.6551V36.6696V36.6838V36.6981V36.7121V36.7261V36.7401V36.7538V36.7673V36.7811V36.7943V36.8078V36.8211V36.8341V36.8471V36.8601V36.8728V36.8856V36.8981V36.9106V36.9228V36.9351V36.9473V36.9593V36.9713V36.9831V36.9946V37.0063V37.0176V37.0291V37.0403V37.0513V37.0623V37.0731V37.0838V37.0946V37.1051V37.1153V37.1258V37.1358V37.1458V37.1558V37.1656V37.1753V37.1848V37.1943V37.2036V37.2128V37.2218V37.2308V37.2396V37.2483V37.2568V37.2653V37.2736V37.2818V37.2898V37.2978V37.3056V37.3133V37.3208V37.3283V37.3356V37.3428V37.3498V37.3566V37.3636V37.3701V37.3766V37.3831V37.3893V37.3953V37.4013V37.4073V37.4131V37.4186V37.4241V37.4293V37.4346V37.4396V37.4446V37.4493V37.4541V37.4586V37.4628V37.4671V37.4711V37.4751V37.4791V37.4826V37.4861V37.4896V37.4928V37.4961V37.4991V37.5018V37.5046V37.5071V37.5118V37.5158V37.5193V37.5223V37.5256V37.5281C27.5 38.9088 26.3808 40.0283 25 40.0283C23.6192 40.0283 22.5 38.9091 22.5 37.5283V37.5256V37.5223V37.5193V37.5158V37.5118V37.5071V37.5046V37.5018V37.4991V37.4961V37.4928V37.4896V37.4861V37.4826V37.4791V37.4751V37.4711V37.4671V37.4628V37.4586V37.4541V37.4493V37.4446V37.4396V37.4346V37.4293V37.4241V37.4186V37.4131V37.4073V37.4013V37.3953V37.3893V37.3831V37.3766V37.3701V37.3636V37.3566V37.3498V37.3428V37.3356V37.3283V37.3208V37.3133V37.3056V37.2978V37.2898V37.2818V37.2736V37.2653V37.2568V37.2483V37.2396V37.2308V37.2218V37.2128V37.2036V37.1943V37.1848V37.1753V37.1656V37.1558V37.1458V37.1358V37.1258V37.1153V37.1051V37.0946V37.0838V37.0731V37.0623V37.0513V37.0403V37.0291V37.0176V37.0063V36.9946V36.9831V36.9713V36.9593V36.9473V36.9351V36.9228V36.9106V36.8981V36.8856V36.8728V36.8601V36.8471V36.8341V36.8211V36.8078V36.7943V36.7811V36.7673V36.7538V36.7401V36.7261V36.7121V36.6981V36.6838V36.6696V36.6551V36.6406V36.6261V36.6113V36.5963V36.5816V36.5666V36.5513V36.5361V36.5208V36.5053V36.4898V36.4741V36.4586V36.4426V36.4266V36.4106V36.3946V36.3783V36.3621V36.3456V36.3291V36.3126V36.2958V36.2788V36.2621V36.2451V36.2281V36.2108V36.1936V36.1761V36.1588V36.1411V36.1236V36.1058V36.0881V36.0701V36.0521V36.0341V36.0158V35.9976V35.9791V35.9608V35.9423V35.9236V35.9048V35.8861V35.8673V35.8483V35.8291V35.8101V35.7908V35.7716V35.7521V35.7326V35.7131V35.6936V35.6738V35.6541V35.6341V35.6141V35.5941V35.5741V35.5538V35.5336V35.5131V35.4928V35.4723V35.4516V35.4308V35.4101V35.3893V35.3686V35.3476V35.3266V35.3053V35.2841V35.2628V35.2416V35.2201V35.1986V35.1771V35.1553V35.1336V35.1118V35.0901V35.0681V35.0461V35.0241V35.0021V34.9798V34.9576V34.9351V34.9128V34.8903V34.8678V34.8451V34.8226V34.7998V34.7768V34.7541V34.7311V34.7081V34.6851V34.6618V34.6388V34.6156V34.5923V34.5688V34.5453V34.5218V34.4983V34.4748V34.4511V34.4273V34.4036V34.3796V34.3558V34.3318V34.3078V34.2836V34.2596V34.2353V34.2111V34.1868V34.1623V34.1381V34.1136V34.0891V34.0643V34.0398V34.0151V33.9903V33.9656V33.9408V33.9158V33.8908V33.8658V33.8408V33.8158V33.7906V33.7656V33.7403V33.7151V33.6896V33.6643V33.6388V33.6133V33.5878V33.5623V33.5366V33.5111V33.4853V33.4596V33.4338V33.4081V33.3821V33.3561V33.3303V33.3043V33.2781V33.2521V33.2261V33.1998V33.1736V33.1473V33.1211V33.0948V33.0686V33.0421V33.0156V32.9891V32.9626V32.9361V32.9096V32.8831V32.8563V32.8296V32.8028V32.7761V32.7493V32.7226V32.6958V32.6688V32.6421V32.6151V32.5881V32.5611V32.5341V32.5071V32.4798V32.4528V32.4256V32.3986V32.3713V32.3441V32.3168V32.2896V32.2623V32.2348V32.2076V32.1801V32.1528V32.1253V32.0978V32.0703V32.0428V32.0153V31.9878V31.9603V31.9326V31.9051V31.8773V31.8498V31.8221V31.7943V31.7666V31.7391V31.7113V31.6833V31.6556V31.6278V31.6001V31.5723V31.5443V31.5166V31.4886V31.4608V31.4328V31.4048V31.3771V31.3491V31.3211V31.2931V31.2651V31.2371V31.2091V31.1811V31.1531V31.1251V31.0971V31.0691V31.0408V31.0128V30.9848V30.9568V30.9286V30.9006V30.8723V30.8443V30.8161V30.7881V30.7598V30.7318V30.7036V30.6756V30.6473V30.6193V30.5911V30.5631V30.5348V30.5066V30.4786V30.4503V30.4223V30.3941V30.3658V30.3378V30.3096V30.2816V30.2533V30.2253V30.1971V30.1688V30.1408V30.1128V30.0846V30.0566V30.0283V30.0003V29.9721V29.9441V29.9161V29.8878V29.8598V29.8318V29.8038V29.7758V29.7478V29.7196V29.6916V29.6636V29.6356V29.6078V29.5798V29.5518V29.5238V29.4961V29.4681V29.4401V29.4123V29.3843V29.3566V29.3288V29.3008V29.2731V29.2453V29.2176V29.1898V29.1621V29.1343V29.1066V29.0791V29.0513V29.0236V28.9961V28.9686V28.9408V28.9133V28.8858V28.8583V28.8308V28.8033V28.7758V28.7486V28.7211V28.6938V28.6663V28.6391V28.6118V28.5846V28.5573V28.5301V28.5028V28.4758V28.4486V28.4216V28.3943V28.3673V28.3403V28.3133V28.2866V28.2596V28.2326V28.2058V28.1791V28.1523V28.1253V28.0988V28.0721V28.0453V28.0188V27.9921V27.9656V27.9391V27.9126V27.8863V27.8598V27.8333V27.8071V27.7808V27.7546V27.7283V27.7021V27.6761V27.6501V27.6238V27.5978V27.5718V27.5461V27.5201V27.4943V27.4686V27.4428V27.4171V27.3913V27.3656V27.3401V27.3146V27.2891V27.2636V27.2383V27.2128V27.1876V27.1623V27.1371V27.1121V27.0868V27.0618V27.0368V27.0118V26.9868V26.9621V26.9373V26.9126V26.8878V26.8631V26.8386V26.8141V26.8043V26.7943V26.7846V26.7746V26.7648V26.7548V26.7448V26.7348V26.7248V26.7148V26.7048V26.6948V26.6848V26.6748V26.6646V26.6546V26.6443V26.6341V26.6241V26.6138V26.6036V26.5933V26.5831V26.5728V26.5626V26.5523V26.5421V26.5316V26.5213V26.5108V26.5006V26.4901V26.4796V26.4693V26.4588V26.4483V26.4378V26.4273V26.4168V26.4063V26.3958V26.3851V26.3746V26.3641V26.3533V26.3428V26.3321V26.3216V26.3108V26.3001V26.2896V26.2788V26.2681V26.2573V26.2466V26.2358V26.2251V26.2143V26.2036V26.1926V26.1818V26.1711V26.1603V26.1493V26.1386V26.1276V26.1168V26.1058V26.0948V26.0841V26.0731V26.0621V26.0513V26.0403V26.0293V26.0183V26.0073V25.9963V25.9853V25.9743V25.9633V25.9523V25.9413V25.9301V25.9191V25.9081V25.8971V25.8858V25.8748V25.8638V25.8526V25.8416V25.8303V25.8193V25.8081V25.7971V25.7858V25.7748V25.7636V25.7523V25.7413V25.7301V25.7188V25.7078V25.6966V25.6853V25.6741V25.6631V25.6518V25.6406V25.6293V25.6181V25.6068V25.5958V25.5846V25.5733V25.5621V25.5508V25.5396V25.5283V25.5171V25.5058V25.4946V25.4833V25.4721V25.4608V25.4496V25.4383V25.4271V25.4158V25.4046V25.3933V25.3821V25.3708V25.3596V25.3483V25.3371V25.3258V25.3146V25.3033V25.2921V25.2806V25.2693V25.2581V25.2468V25.2356V25.2243V25.2131V25.2018V25.1906V25.1793V25.1683V25.1571V25.1458V25.1346V25.1233V25.1121V25.1008V25.0896V25.0783V25.0671V25.0561V25.0448V25.0336V25.0223V25.0113V25.0001V24.9888V24.9776V24.9666V24.9553V24.9441V24.9331V24.9218V24.9108V24.8996V24.8886V24.8773V24.8663V24.8551V24.8441V24.8331V24.8218V24.8108V24.7998V24.7886V24.7776V24.7666V24.7556V24.7446V24.7336V24.7226V24.7116V24.7006V24.6896V24.6786V24.6676V24.6566V24.6458V24.6348V24.6238V24.6128V24.6021V24.5911V24.5803V24.5693V24.5586V24.5476V24.5368V24.5261V24.5153V24.5043V24.4936V24.4828V24.4721V24.4613V24.4506V24.4398V24.4291V24.4186V24.4078V24.3971V24.3866V24.3758V24.3651V24.3546V24.3441V24.3333V24.3228V24.3123V24.3018V24.2913V24.2806V24.2701V24.2598V24.2493V24.2388V24.2283V24.2181V24.2076V24.1971V24.1868V24.1766V24.1661V24.1558V24.1456V24.1353V24.1251V24.1148V24.1046V24.0943V24.0841V24.0741V24.0638V24.0536V24.0436V24.0336V24.0233V24.0133V24.0033V23.9933V23.9833V23.9733V23.9633V23.9533V23.9436V23.9336V23.9238V23.9138V23.9041V23.8943V23.8843V23.8746V23.8648V23.8553V23.8456V23.8358V23.8261V23.8166V23.8068V23.7973V23.7878V23.7783V23.7688V23.7593V23.7498V23.7403V23.7308V23.7216V23.7121V23.7028V23.6936V23.6841V23.6748V23.6656V23.6563V23.6473V23.6381V23.6288V23.6198V23.6106V23.6016V23.5926V23.5836V23.5746V23.5656V23.5566V23.5478V23.5388V23.5301V23.5211V23.5123V23.5036V23.4948V23.4861V23.4776V23.4688V23.4603V23.4516V23.4431V23.4346V23.4261V23.4176V23.4091V23.4006V23.3923V23.3838V23.3756V23.3673V23.3591V23.3508V23.3426V23.3343V23.3263V23.3181V23.3101V23.3021V23.2941V23.2861V23.2781V23.2701V23.2623V23.2543V23.2466V23.2388V23.2311V23.2233V23.2156V23.2081V23.2003V23.1928V23.1853V23.1778V23.1703V23.1628V23.1553V23.1481V23.1406V23.1333V23.1261V23.1188V23.1116V23.1046V23.0973V23.0903V23.0831V23.0761V23.0691V23.0623V23.0553V23.0486V23.0416V23.0348V23.0281V23.0213V23.0146V23.0081V23.0013V22.9948V22.9883V22.9818V22.9753V22.9691V22.9626V22.9563V22.9501V22.9438V22.9376V22.9313V22.9253V22.9191V22.9131V22.9071V22.9011V22.8951V22.8893V22.8833V22.8776V22.8718V22.8661V22.8606V22.8548V22.8493V22.8436V22.8381V22.8326V22.8273V22.8218V22.8166V22.8113V22.8061V22.8008V22.7956V22.7906V22.7853V22.7803V22.7753V22.7706V22.7656V22.7608V22.7558V22.7511V22.7466V22.7418V22.7371V22.7326V22.7281V22.7236V22.7191V22.7148V22.7103V22.7061V22.7018V22.6976V22.6936V22.6893V22.6853V22.6813V22.6773V22.6733V22.6696V22.6658V22.6621V22.6583V22.6546V22.6508V22.6473V22.6438V22.6403V22.6368V22.6336V22.6303V22.6268V22.6238V22.6206V22.6173V22.6143V22.6113V22.6083V22.6053V22.6026V22.5998V22.5971V22.5943V22.5916V22.5891V22.5863V22.5838V22.5791V22.5746V22.5701V22.5658V22.5618V22.5581V22.5546V22.5511V22.5481V22.5451V22.5413V22.5388V22.5358V22.5333V22.5303C22.5 21.1496 23.6192 20.0283 25 20.0283Z" fill="#424244"/>
</svg>
